<svg width="197" height="50" viewBox="0 0 197 50" fill="none" xmlns="http://www.w3.org/2000/svg">
<g clip-path="url(#clip0_1_23)">
<path fill-rule="evenodd" clip-rule="evenodd" d="M39.3574 6.21254C39.2262 7.17655 34.2045 24.138 34.2033 24.1393C34.0797 24.281 17.6512 28.9918 16.12 29.3209C16.2371 28.7698 16.7323 27.3952 16.6698 26.9626C16.5546 26.1639 15.4328 25.9596 15.0269 26.6535C14.8624 26.9347 14.4864 28.4228 14.3697 28.8387C13.6074 31.5541 13.509 30.5521 16.9589 34.0359L28.4994 45.5051C29.1639 46.1614 29.7132 45.764 30.6214 45.5175L46.3598 41.0614C47.1026 40.8458 47.8368 40.6358 48.5878 40.4372C49.5666 40.1783 50.0456 40.2276 50.3397 39.2308C52.1015 33.2603 53.727 27.3379 55.441 21.3708C56.2516 18.5481 56.3344 19.2186 54.6454 17.5238C50.426 13.2894 45.7956 8.86331 41.6813 4.63226C40.9002 3.82908 40.8902 3.8876 39.6207 4.27502C34.0006 5.99025 27.4119 7.70053 21.6532 9.35484C20.9576 9.55467 19.9966 9.62412 19.7045 10.2587C19.5746 10.541 19.1124 12.173 19.066 12.4662C18.923 13.3702 19.885 13.8449 20.5093 13.3757C21.0142 12.9962 20.8626 11.6383 21.3883 11.3051C21.6436 11.1432 25.2653 10.1916 25.8265 10.0372L34.807 7.49562C36.2891 7.08098 37.8637 6.55737 39.3574 6.21254ZM16.5595 31.0404C16.7719 31.4157 22.2501 36.7892 22.6717 37.1978C24.7688 39.23 26.7114 41.2645 28.8163 43.2945C29.7159 44.1619 29.2646 44.038 30.8093 43.5992L47.5769 38.8276C47.3283 38.3783 42.0006 33.2059 41.5364 32.7616L35.3951 26.6558C34.4742 25.7021 34.8305 25.93 33.3374 26.3332C30.6319 27.0637 17.7472 30.8527 16.5595 31.0404Z" fill="#F5365C"/>
<path fill-rule="evenodd" clip-rule="evenodd" d="M0.720006 14.495C-0.302926 14.7795 -0.2938 16.1897 1.12249 16.247C3.68315 16.3504 8.65886 16.2438 11.3983 16.2438C13.0946 16.2438 24.4704 16.3965 25.1184 16.1657C25.9247 15.8786 26.0156 14.5143 24.6303 14.4541C22.1642 14.347 17.0218 14.4553 14.3625 14.4553C12.8337 14.4553 1.17891 14.3674 0.720006 14.495Z" fill="#F5365C"/>
<path fill-rule="evenodd" clip-rule="evenodd" d="M4.62302 20.7898H21.1379C22.7924 20.7898 22.8415 19.0051 21.1379 19.0051H4.41132C3.05916 19.0051 2.80883 20.7898 4.62302 20.7898Z" fill="#F5365C"/>
<path fill-rule="evenodd" clip-rule="evenodd" d="M16.3741 23.5406L7.00508 23.5383C6.45291 23.5383 6.1212 23.5736 5.90811 23.9008C5.68418 24.2444 5.7252 24.7157 5.94563 24.9943C6.36463 25.5238 7.74004 25.3268 8.43426 25.3268C9.70588 25.3268 19.0542 25.4378 19.502 25.2097C20.1988 24.8548 20.0901 23.7485 19.2251 23.5679C18.6939 23.4569 17.0225 23.5415 16.3741 23.5406Z" fill="#F5365C"/>
</g>
<path d="M77.897 24.427V17.728H81.56C84.167 17.728 85.322 18.982 85.322 21.094C85.322 23.14 84.167 24.427 81.56 24.427H77.897ZM90.074 21.094C90.074 17.101 87.302 13.966 81.758 13.966H73.277V37H77.897V28.156H81.758C87.698 28.156 90.074 24.592 90.074 21.094ZM92.1661 27.793C92.1661 33.502 95.8621 37.297 100.482 37.297C103.386 37.297 105.465 35.911 106.554 34.327V37H111.207V18.718H106.554V21.325C105.465 19.807 103.452 18.421 100.515 18.421C95.8621 18.421 92.1661 22.084 92.1661 27.793ZM106.554 27.859C106.554 31.324 104.244 33.238 101.703 33.238C99.2281 33.238 96.8851 31.258 96.8851 27.793C96.8851 24.328 99.2281 22.48 101.703 22.48C104.244 22.48 106.554 24.394 106.554 27.859ZM115.719 37H120.339V29.212L126.543 37H132.549L124.431 27.892L132.483 18.718H126.477L120.339 26.473V12.58H115.719V37ZM142.845 22.216C145.221 22.216 147.135 23.734 147.201 26.143H138.522C138.885 23.635 140.634 22.216 142.845 22.216ZM151.524 31.258H146.541C145.947 32.479 144.858 33.469 142.878 33.469C140.568 33.469 138.72 31.951 138.489 29.245H151.854C151.953 28.651 151.986 28.057 151.986 27.463C151.986 22.018 148.257 18.421 142.977 18.421C137.565 18.421 133.803 22.084 133.803 27.859C133.803 33.601 137.664 37.297 142.977 37.297C147.498 37.297 150.534 34.624 151.524 31.258ZM156.084 31.324C156.084 35.515 158.427 37 161.925 37H164.829V33.106H162.684C161.232 33.106 160.737 32.578 160.737 31.357V22.513H164.829V18.718H160.737V14.197H156.084V18.718H153.906V22.513H156.084V31.324Z" fill="#F5365C"/>
<path d="M168.152 37H172.772V13.966H168.152V37ZM190.141 37H194.761V26.275C194.761 21.226 191.725 18.454 187.468 18.454C185.125 18.454 183.145 19.444 181.957 20.995V18.718H177.337V37H181.957V26.902C181.957 23.965 183.574 22.381 186.082 22.381C188.524 22.381 190.141 23.965 190.141 26.902V37Z" fill="#FFD600"/>
<defs>
<clipPath id="clip0_1_23">
<rect width="56" height="42" fill="white" transform="translate(0 4)"/>
</clipPath>
</defs>
</svg>
